<svg width="12" height="12" viewBox="0 0 12 12" fill="none" xmlns="http://www.w3.org/2000/svg">
<path d="M2.7035 7.90257C2.4812 7.73881 2.4337 7.42581 2.59745 7.20347C2.72465 7.03076 2.85185 6.8666 2.96345 6.7236C3.1862 6.4382 3.49285 6.0559 3.82605 5.6722C4.15705 5.29095 4.5241 4.8968 4.8667 4.59405C5.03745 4.4432 5.21395 4.30445 5.38605 4.2007C5.5444 4.10525 5.762 4 6.00005 4C6.2381 4 6.45575 4.10525 6.6141 4.2007C6.7862 4.30445 6.96265 4.4432 7.1334 4.59405C7.47605 4.8968 7.84307 5.29095 8.17409 5.6722C8.50726 6.0559 8.81392 6.4382 9.03668 6.7236C9.14827 6.8666 9.27549 7.03076 9.40269 7.20346C9.56644 7.42581 9.51895 7.73881 9.2966 7.90257C9.20722 7.9684 9.10319 8.00008 9.00009 8L6.00005 8L3.00005 8C2.89695 8.00008 2.7929 7.9684 2.7035 7.90257Z" fill="#3F6AC9"/>
</svg>
