<svg width="24" height="24" viewBox="0 0 24 24" fill="none" xmlns="http://www.w3.org/2000/svg">
<path d="M12.135 1.01771C11.6483 1.1371 11.6299 1.21058 11.6299 3.17594C11.6299 4.87497 11.6391 5.00354 11.8136 5.17804C12.0523 5.41682 12.5483 5.41682 12.833 5.18722C13.0534 5.01273 13.0534 4.99436 13.0534 3.21268C13.0534 1.5412 13.0442 1.40344 12.8697 1.23813C12.6585 1.03608 12.3922 0.962609 12.135 1.01771Z" fill="black"/>
<path d="M14.578 4.1127C14.4219 5.94949 14.3943 6.09643 14.128 6.34439C13.9076 6.54644 13.8525 6.55563 12.3279 6.55563C11.4647 6.55563 10.6657 6.52808 10.5554 6.50052C10.1697 6.3995 10.0687 6.08725 9.93094 4.48005C9.85746 3.63513 9.77481 2.92797 9.75644 2.9096C9.73807 2.88205 8.83805 2.99226 7.75434 3.14838C6.18389 3.38717 5.69714 3.48819 5.30223 3.69024C4.70527 3.98412 4.25526 4.58108 4.10832 5.26987C3.95219 5.98622 3.97056 18.0998 4.12668 18.4029C4.19097 18.5315 5.31141 19.6152 6.62472 20.8091C8.47987 22.5081 9.06765 22.9949 9.25132 22.9949C9.38908 22.9949 9.52684 22.9306 9.55439 22.8479C9.63705 22.6367 9.61868 12.865 9.53603 12.7364C9.49929 12.6721 8.88397 12.2405 8.1768 11.7721L6.90023 10.918L6.87268 10.018C6.85431 9.53123 6.87268 9.12713 6.90942 9.12713C6.94615 9.12713 7.87373 9.62306 8.98499 10.2384L10.9871 11.3405L10.9963 12.6446C10.9963 13.3609 11.0238 14.2426 11.0606 14.6008C11.1248 15.1977 11.1616 15.2896 11.584 15.813C12.2086 16.5845 12.3096 16.6029 12.8147 16.0518C13.577 15.2161 13.5586 15.2712 13.5586 13.2507C13.5586 11.8456 13.5861 11.4231 13.6872 11.3405C13.8066 11.2394 17.5995 9.12713 17.6638 9.12713C17.6822 9.12713 17.6914 9.53123 17.6914 10.0272V10.9364L16.3689 11.818C15.2944 12.5252 15.0464 12.7456 15.0005 12.9568C14.9178 13.3609 14.9546 22.5541 15.0372 22.7837C15.1933 23.2061 15.5056 23.05 16.6995 21.9571C17.324 21.3969 18.2057 20.5979 18.6557 20.1938C19.1057 19.7897 19.7118 19.2387 20.0057 18.9631L20.5384 18.4672V11.9007C20.5384 7.13421 20.5108 5.24232 20.4282 4.97599C20.2904 4.49842 19.721 3.86473 19.2343 3.63513C18.9955 3.52493 18.1781 3.35961 17.1863 3.20349C16.277 3.07491 15.3403 2.92797 15.1107 2.89123L14.679 2.81776L14.578 4.1127ZM9.18704 4.59945C9.27888 5.86683 9.39827 6.41787 9.67379 6.73931C10.1054 7.25361 10.2616 7.29034 12.2269 7.29034C14.2015 7.29034 14.3484 7.26279 14.7892 6.73931C15.0923 6.37195 15.1842 5.99541 15.2668 4.73721C15.3035 4.07596 15.3678 3.7086 15.4321 3.7086C15.6525 3.7086 18.6006 4.1678 18.7567 4.23209C19.0965 4.35148 19.4547 4.6821 19.6292 5.01272C19.7945 5.33416 19.8037 5.64642 19.8037 11.6711C19.8037 15.1426 19.7669 18.0356 19.7302 18.0907C19.62 18.2652 15.9097 21.6173 15.8362 21.6173C15.7903 21.6173 15.7627 19.7162 15.7627 17.3927V13.1681L17.0301 12.3323C17.7189 11.8731 18.3434 11.4323 18.4077 11.3496C18.5455 11.166 18.5638 8.46589 18.4261 8.19955C18.371 8.10771 18.2424 8.02506 18.1506 8.02506C17.9577 8.02506 13.2739 10.5874 12.9892 10.8445C12.8422 10.9731 12.8239 11.1935 12.8239 12.8466C12.8239 14.6191 12.8147 14.7202 12.6218 15.0049C12.3463 15.3998 12.2637 15.4181 12.0432 15.1151C11.8779 14.8855 11.8596 14.7018 11.832 12.9293C11.8045 11.2394 11.7861 10.9639 11.6483 10.8445C11.382 10.6149 6.64308 8.02506 6.47777 8.02506C6.15634 8.02506 6.11042 8.23629 6.13797 9.82511L6.16552 11.3772L7.35943 12.1854C8.02068 12.6262 8.62682 13.0487 8.71866 13.1221C8.8656 13.2507 8.87478 13.5722 8.87478 17.4386C8.87478 20.2764 8.84723 21.6173 8.78294 21.6173C8.70947 21.6173 8.00231 21.0295 7.68087 20.6989C7.65332 20.6713 7.01044 20.0836 6.24817 19.3948L4.8614 18.1366L4.8063 13.9303C4.71446 7.96995 4.72364 5.8301 4.84303 5.40763C4.98079 4.92089 5.30223 4.50761 5.70632 4.31474C5.96347 4.18617 8.25946 3.77289 8.97581 3.71779C9.10438 3.7086 9.14112 3.85555 9.18704 4.59945Z" fill="#080808"/>
<path d="M9.18704 4.59945C9.27888 5.86683 9.39827 6.41787 9.67379 6.73931C10.1054 7.25361 10.2616 7.29034 12.2269 7.29034C14.2015 7.29034 14.3484 7.26279 14.7892 6.73931C15.0923 6.37195 15.1842 5.99541 15.2668 4.73721C15.3035 4.07596 15.3678 3.7086 15.4321 3.7086C15.6525 3.7086 18.6006 4.1678 18.7567 4.23209C19.0965 4.35148 19.4547 4.6821 19.6292 5.01272C19.7945 5.33416 19.8037 5.64642 19.8037 11.6711C19.8037 15.1426 19.7669 18.0356 19.7302 18.0907C19.62 18.2652 15.9097 21.6173 15.8362 21.6173C15.7903 21.6173 15.7627 19.7162 15.7627 17.3927V13.1681L17.0301 12.3323C17.7189 11.8731 18.3434 11.4323 18.4077 11.3496C18.5455 11.166 18.5638 8.46589 18.4261 8.19955C18.371 8.10771 18.2424 8.02506 18.1506 8.02506C17.9577 8.02506 13.2739 10.5874 12.9892 10.8445C12.8422 10.9731 12.8239 11.1935 12.8239 12.8466C12.8239 14.6191 12.8147 14.7202 12.6218 15.0049C12.3463 15.3998 12.2637 15.4181 12.0432 15.1151C11.8779 14.8855 11.8596 14.7018 11.832 12.9293C11.8045 11.2394 11.7861 10.9639 11.6483 10.8445C11.382 10.6149 6.64308 8.02506 6.47777 8.02506C6.15634 8.02506 6.11042 8.23629 6.13797 9.82511L6.16552 11.3772L7.35943 12.1854C8.02068 12.6262 8.62682 13.0487 8.71866 13.1221C8.8656 13.2507 8.87478 13.5722 8.87478 17.4386C8.87478 20.2764 8.84723 21.6173 8.78294 21.6173C8.70947 21.6173 8.00231 21.0295 7.68087 20.6989C7.65332 20.6713 7.01044 20.0836 6.24817 19.3948L4.8614 18.1366L4.8063 13.9303C4.71446 7.96995 4.72364 5.8301 4.84303 5.40763C4.98079 4.92089 5.30223 4.50761 5.70632 4.31474C5.96347 4.18617 8.25946 3.77289 8.97581 3.71779C9.10438 3.7086 9.14112 3.85555 9.18704 4.59945Z" fill="#080808"/>
</svg>
