<svg width="23" height="30" viewBox="0 0 23 30" fill="none" xmlns="http://www.w3.org/2000/svg">
<path d="M11.1801 0.35694C10.5311 0.516129 10.5066 0.614091 10.5066 3.23458C10.5066 5.49995 10.5188 5.67138 10.7515 5.90404C11.0699 6.22242 11.7311 6.22242 12.1107 5.91629C12.4046 5.68363 12.4046 5.65914 12.4046 3.28356C12.4046 1.05492 12.3924 0.871241 12.1597 0.650826C11.8781 0.381431 11.5229 0.283469 11.1801 0.35694Z" fill="black"/>
<path d="M6.75064 5.16872L6.75067 5.16872C6.81218 6.01759 6.88454 6.655 6.99424 7.14201C7.10457 7.63181 7.26102 8.00953 7.51691 8.30899C7.66331 8.48336 7.818 8.65669 8.01389 8.79665C8.22046 8.94424 8.44825 9.03827 8.72758 9.09887C9.24442 9.211 10.017 9.22045 11.3025 9.22045C12.5925 9.22045 13.3657 9.21407 13.882 9.1038C14.162 9.04403 14.3903 8.9503 14.5981 8.80178C14.7954 8.66083 14.952 8.48524 15.1014 8.3078L15.1047 8.30394L15.1047 8.30392C15.6249 7.67337 15.7455 7.00983 15.8546 5.34904L15.855 5.344L15.855 5.344C15.8753 4.97843 15.9015 4.6917 15.9297 4.48665C16.0352 4.50064 16.1576 4.51755 16.2931 4.53682C16.7032 4.59513 17.2261 4.67397 17.7473 4.75562C18.2685 4.83727 18.7858 4.92141 19.1848 4.99027C19.3846 5.02476 19.5523 5.055 19.6751 5.07894C19.7368 5.09097 19.784 5.10079 19.8169 5.10828C19.8309 5.11148 19.8396 5.11368 19.8442 5.11486C20.1626 5.22716 20.5471 5.57179 20.729 5.91514C20.7297 5.91634 20.7303 5.91754 20.7309 5.91874C20.7804 6.01434 20.841 6.13158 20.8714 7.28408C20.9018 8.43746 20.9049 10.541 20.9049 14.5614C20.9049 16.8743 20.8926 18.9937 20.8743 20.5435C20.8651 21.3186 20.8544 21.9496 20.8431 22.3905C20.8373 22.6114 20.8315 22.7815 20.8258 22.8971C20.8257 22.8999 20.8255 22.9028 20.8254 22.9055C20.791 22.9399 20.7486 22.9815 20.6982 23.0301C20.5521 23.1713 20.3492 23.3624 20.107 23.5875C19.6233 24.0372 18.9899 24.6161 18.3571 25.1884C17.7244 25.7608 17.094 26.3251 16.6164 26.7458C16.5959 26.7639 16.5756 26.7817 16.5557 26.7992C16.5511 26.6096 16.5468 26.3956 16.5429 26.1602C16.5261 25.143 16.517 23.7378 16.517 22.1902V16.8266L17.9821 15.8605L17.9842 15.8591C18.4462 15.5511 18.8883 15.2482 19.2272 15.0072C19.3962 14.887 19.5426 14.7801 19.654 14.6946C19.7094 14.6521 19.7597 14.6122 19.8013 14.5769C19.8318 14.551 19.8918 14.4995 19.9383 14.4398L19.9437 14.4329L19.9436 14.4328C20.0199 14.3311 20.0496 14.216 20.0605 14.1733C20.0769 14.1094 20.0895 14.0387 20.0997 13.9688C20.1203 13.8276 20.1366 13.6508 20.1496 13.4566C20.1758 13.0658 20.1905 12.5711 20.1936 12.0773C20.1967 11.5833 20.1882 11.082 20.1669 10.678C20.1563 10.4768 20.1421 10.2929 20.1235 10.1433C20.1142 10.0688 20.103 9.99615 20.089 9.93073C20.0771 9.87533 20.0555 9.78666 20.0122 9.70301L20.005 9.689L19.9968 9.67548C19.9112 9.53282 19.7877 9.42274 19.6712 9.34865C19.5612 9.27861 19.3934 9.20007 19.2007 9.20007C19.1055 9.20007 19.0228 9.22824 19.0034 9.23485C19.0024 9.23518 19.0016 9.23545 19.0009 9.23567C18.9649 9.24772 18.9273 9.26259 18.8921 9.27732C18.8206 9.30726 18.7313 9.34835 18.6305 9.39673C18.4274 9.49419 18.1554 9.63179 17.8401 9.79543C17.2082 10.1233 16.3882 10.5629 15.5659 11.0124C14.7436 11.4619 13.9162 11.9228 13.2695 12.2935C12.9465 12.4787 12.6662 12.6427 12.4533 12.7722C12.3471 12.8368 12.2548 12.8945 12.1811 12.9429C12.1181 12.9844 12.0427 13.0357 11.9872 13.0852C11.7334 13.3088 11.6689 13.6032 11.6369 13.9906C11.6042 14.3865 11.5985 15.0353 11.5985 16.1288C11.5985 17.3235 11.5948 17.9179 11.5624 18.265C11.5468 18.4315 11.5268 18.5112 11.5096 18.5587C11.4939 18.6019 11.4733 18.6401 11.417 18.7232C11.4116 18.731 11.4063 18.7386 11.4011 18.746C11.401 18.7456 11.4009 18.7453 11.4008 18.745C11.3835 18.6926 11.3632 18.6011 11.3456 18.4194C11.3098 18.0497 11.2944 17.4221 11.2759 16.2313L11.2759 16.2309C11.2577 15.1118 11.2423 14.4361 11.2068 14.0213C11.1745 13.6437 11.1211 13.309 10.8586 13.0815L10.8576 13.0807C10.8042 13.0347 10.7291 12.9852 10.667 12.9455C10.595 12.8994 10.5039 12.8437 10.3983 12.7806C10.1866 12.6542 9.90619 12.4922 9.58202 12.3081C8.93309 11.9395 8.10049 11.4777 7.27311 11.026C6.44582 10.5744 5.62134 10.1317 4.98876 9.80123C4.67299 9.63628 4.40202 9.49775 4.20138 9.39976C4.10177 9.35111 4.01457 9.31004 3.94585 9.28022C3.91214 9.2656 3.87633 9.25082 3.84245 9.23879C3.82572 9.23285 3.80317 9.22533 3.77781 9.21872C3.7612 9.21439 3.70612 9.20007 3.63701 9.20007C3.48429 9.20007 3.24652 9.22295 3.04385 9.40725C2.85679 9.57736 2.7834 9.81088 2.74493 10.0115C2.66857 10.4096 2.66601 11.0708 2.68401 12.1088L2.68401 12.109L2.72075 14.1785L2.72536 14.4381L2.94039 14.5836L4.53227 15.6612L4.5352 15.6632L4.53521 15.6632C5.31969 16.1862 6.02497 16.6759 6.24945 16.8394C6.24949 16.8396 6.24953 16.8398 6.24957 16.84C6.26968 16.9415 6.28896 17.1363 6.30273 17.5227C6.32988 18.2844 6.33302 19.6687 6.33302 22.2515C6.33302 24.1429 6.32383 25.5312 6.30406 26.4454C6.30055 26.6075 6.29673 26.7538 6.2926 26.8848C6.03391 26.6644 5.76851 26.4237 5.59964 26.25L5.59473 26.2449L5.59469 26.245C5.54621 26.1965 4.6742 25.3997 3.66638 24.489C3.66629 24.4889 3.6662 24.4888 3.6661 24.4887L1.97895 22.958L1.90833 17.5672L1.90832 17.5661C1.84709 13.5924 1.81961 10.8968 1.82724 9.12516C1.83106 8.23884 1.84365 7.58919 1.8648 7.12873C1.88683 6.64881 1.91691 6.42276 1.93846 6.34633L6.75064 5.16872ZM6.75064 5.16872L6.75031 5.16339M6.75064 5.16872L6.75031 5.16339M6.75031 5.16339C6.73093 4.84943 6.71354 4.63425 6.69625 4.48728C6.18598 4.54837 5.39968 4.67375 4.64777 4.81024C4.18759 4.89377 3.74934 4.97981 3.40716 5.05498C3.23566 5.09266 3.09226 5.12673 2.984 5.15564C2.89685 5.17892 2.85259 5.19376 2.83714 5.19895C2.83233 5.20056 2.83031 5.20123 2.83065 5.20094M6.75031 5.16339L2.83065 5.20094M2.83065 5.20094L2.82377 5.20422C2.43648 5.38907 2.09012 5.81064 1.93851 6.34615L2.83065 5.20094ZM15.8536 27.399C15.8536 27.399 15.8536 27.399 15.8537 27.3989L15.8536 27.399ZM20.912 22.8153C20.9118 22.8155 20.9108 22.8167 20.9092 22.8186C20.9114 22.8161 20.9123 22.8151 20.912 22.8153ZM13.8435 8.06618C13.8103 8.08238 13.7765 8.09678 13.7421 8.10961C13.8716 8.07583 13.9511 8.03509 14.0167 7.9882C14.1034 7.92619 14.1914 7.83593 14.3348 7.66568C14.5754 7.37348 14.7014 7.08553 14.8014 6.00255C14.7624 6.37411 14.7254 6.65145 14.6826 6.86422C14.6378 7.08756 14.5807 7.27452 14.4899 7.43984C14.3959 7.61091 14.2828 7.72756 14.178 7.82514L14.1752 7.82776C14.0991 7.89748 13.9938 7.99281 13.8435 8.06618ZM15.0279 3.3418L14.9602 4.21047C14.9806 4.08793 15.006 3.9687 15.0404 3.8702C15.0569 3.82304 15.0856 3.75023 15.1352 3.6797C15.1714 3.62841 15.3124 3.4448 15.5761 3.4448C15.6276 3.4448 15.7047 3.45183 15.788 3.46122C15.4455 3.40842 15.1871 3.36765 15.0686 3.34869L15.0686 3.34871L15.0637 3.34788L15.0279 3.3418ZM21.7571 5.77322C21.7333 5.69061 21.6923 5.5955 21.6359 5.49288C21.7003 5.6254 21.7468 5.76216 21.7812 5.95545C21.7801 5.94404 21.7791 5.93305 21.778 5.92247C21.7695 5.83727 21.7623 5.797 21.7602 5.78526C21.7597 5.78291 21.7595 5.78171 21.7595 5.78151L21.7571 5.77322ZM21.8845 23.4053V19.5554C21.8814 19.9095 21.8779 20.2438 21.8742 20.5553C21.865 21.3322 21.8543 21.9686 21.8427 22.4163C21.837 22.6396 21.8309 22.8191 21.8246 22.9466C21.8215 23.0095 21.818 23.0651 21.814 23.1089C21.8121 23.1299 21.8094 23.1559 21.8053 23.1817C21.8033 23.1941 21.7997 23.2148 21.7935 23.2389L21.7933 23.24C21.7905 23.2512 21.7742 23.3173 21.7297 23.3879C21.7005 23.434 21.6657 23.4729 21.6523 23.4879L21.652 23.4882C21.6317 23.5109 21.6082 23.5357 21.5837 23.5609C21.5342 23.6117 21.4693 23.6757 21.3931 23.7493C21.2401 23.8971 21.0317 24.0933 20.7879 24.32C20.2997 24.7738 19.6626 25.3559 19.028 25.93C18.3933 26.5041 17.7594 27.0717 17.2773 27.4963C17.0366 27.7083 16.8319 27.8863 16.6831 28.0122C16.6094 28.0746 16.5458 28.1273 16.4971 28.1657C16.4736 28.1841 16.4474 28.2042 16.4224 28.2215C16.4109 28.2294 16.3907 28.2431 16.3662 28.2567C16.3543 28.2633 16.3323 28.2751 16.3039 28.2864L16.3032 28.2867C16.2855 28.2938 16.2125 28.3231 16.1149 28.3231C15.8818 28.3231 15.7516 28.1727 15.7155 28.1257C15.6715 28.0684 15.6501 28.0147 15.6421 27.9939C15.624 27.9465 15.6157 27.904 15.6123 27.8862C15.6042 27.8428 15.599 27.7949 15.5952 27.7534C15.5872 27.6656 15.5803 27.5446 15.5742 27.3996C15.5619 27.1071 15.5515 26.6883 15.5431 26.1767C15.5262 25.1519 15.517 23.7407 15.517 22.1902V16.5574V16.3435C15.5026 16.3614 15.4947 16.3735 15.4907 16.3808C15.4906 16.382 15.4904 16.3834 15.4903 16.385C15.4888 16.4041 15.4852 16.4493 15.4812 16.532C15.4758 16.6456 15.4709 16.8005 15.4664 16.9925C15.4575 17.376 15.4508 17.8971 15.4463 18.511C15.4371 19.7382 15.4363 21.3284 15.4424 22.9123C15.4486 24.4962 15.4616 26.0719 15.4799 27.2699C15.4891 27.8693 15.4995 28.3721 15.5111 28.7335C15.5154 28.8705 15.5199 28.9853 15.5244 29.0762C15.7909 28.9116 16.2214 28.5545 16.9284 27.9073L16.9284 27.9073L16.9321 27.9039C17.4027 27.4818 17.973 26.9668 18.4909 26.4992C18.8974 26.132 19.2717 25.794 19.5402 25.553C20.1396 25.0147 20.9445 24.2829 21.3323 23.9194L21.3336 23.9182L21.8845 23.4053ZM15.7204 16.1472C15.708 16.1576 15.6962 16.1677 15.6851 16.1773L15.7417 16.14L17.4295 15.0271C17.4298 15.0269 17.4301 15.0266 17.4304 15.0264C17.8864 14.7224 18.3195 14.4256 18.6477 14.1922C18.8124 14.0751 18.9476 13.9762 19.0452 13.9013C19.0682 13.8837 19.0883 13.868 19.1056 13.8542C19.1071 13.8451 19.1086 13.8352 19.1102 13.8244C19.1253 13.7205 19.1396 13.5731 19.1519 13.3898C19.1762 13.0256 19.1906 12.5522 19.1936 12.071C19.1966 11.5899 19.1883 11.1093 19.1683 10.7307C19.1582 10.5407 19.1456 10.3831 19.1311 10.2669C19.1311 10.2666 19.1311 10.2663 19.131 10.266C19.1099 10.276 19.0872 10.2867 19.063 10.2983C18.874 10.3891 18.6128 10.521 18.3006 10.683C17.6774 11.0065 16.8642 11.4424 16.0456 11.8899C15.227 12.3373 14.4059 12.7948 13.7668 13.1611C13.447 13.3445 13.1751 13.5036 12.9728 13.6266C12.8714 13.6883 12.7904 13.7391 12.7307 13.7783C12.7012 13.7978 12.6814 13.8115 12.669 13.8202C12.66 13.8548 12.6454 13.9294 12.6335 14.073C12.6184 14.2561 12.6095 14.5109 12.6044 14.8757C12.6074 14.8129 12.6108 14.7542 12.6144 14.6995C12.6279 14.4974 12.6472 14.3266 12.6786 14.1898C12.7043 14.0775 12.7608 13.8745 12.9329 13.7336C12.9768 13.6978 13.0374 13.6608 13.069 13.6415L13.0734 13.6388C13.1234 13.6082 13.1892 13.5691 13.2671 13.5235C13.4234 13.4321 13.6365 13.3098 13.886 13.168C14.3856 12.884 15.0367 12.5186 15.685 12.1577C16.3332 11.7968 16.9798 11.4397 17.4703 11.1726C17.7153 11.0392 17.923 10.9273 18.0729 10.8483C18.1474 10.8091 18.2107 10.7765 18.2582 10.753C18.2813 10.7415 18.3056 10.7299 18.3276 10.7201C18.338 10.7156 18.3545 10.7085 18.3734 10.7016C18.3827 10.6982 18.399 10.6925 18.4193 10.6871L18.4201 10.6869C18.4325 10.6835 18.4846 10.6695 18.5517 10.6695C18.7997 10.6695 18.9307 10.8382 18.9611 10.8808C19.0021 10.9383 19.0214 10.9914 19.0282 11.0108C19.044 11.056 19.0509 11.0959 19.0535 11.1115C19.06 11.1505 19.0638 11.1923 19.0664 11.2264C19.0719 11.2993 19.076 11.3967 19.0791 11.5075C19.0854 11.7315 19.0885 12.0368 19.0885 12.3695V13.5818V13.8494L18.8658 13.9978L17.1025 15.1734L17.1 15.175C16.3818 15.6477 15.9643 15.9421 15.7204 16.1472ZM19.0884 13.9367C19.0884 13.9369 19.0895 13.9339 19.0913 13.9271C19.0892 13.933 19.0883 13.9365 19.0884 13.9367ZM19.1065 10.1212C19.1065 10.1212 19.1067 10.122 19.1071 10.1234C19.1067 10.1219 19.1065 10.1212 19.1065 10.1212ZM19.3144 10.1854C19.3251 10.1824 19.3273 10.181 19.318 10.1841C19.3173 10.1843 19.3161 10.1847 19.3144 10.1854ZM12.6737 13.8041C12.6765 13.7988 12.6777 13.7953 12.6776 13.7949C12.6774 13.7945 12.676 13.7971 12.6737 13.8041ZM12.4799 18.9997C12.522 18.8402 12.5486 18.6303 12.5629 18.303C12.5613 18.3219 12.5597 18.3402 12.558 18.3581C12.5384 18.5682 12.5072 18.741 12.4497 18.8994C12.391 19.0616 12.314 19.1822 12.243 19.2869L12.2431 19.2869L12.2392 19.2926C12.1456 19.4266 12.0517 19.5536 11.9572 19.6529C11.8713 19.7433 11.7236 19.8784 11.5112 19.9197C11.2606 19.9685 11.0612 19.8647 10.9366 19.7641C10.824 19.6733 10.7295 19.5523 10.6533 19.4475L10.6519 19.4456C10.5764 19.3407 10.5051 19.2223 10.4509 19.0575C10.4003 18.904 10.3709 18.7291 10.3503 18.5159C10.3096 18.0959 10.2943 17.4195 10.2761 16.2472C10.2576 15.1132 10.2423 14.4786 10.2105 14.1066C10.1964 13.9428 10.1799 13.8561 10.1702 13.8153C10.1592 13.8079 10.1453 13.7989 10.1282 13.7879C10.0685 13.7497 9.98718 13.6999 9.8856 13.6392C9.68294 13.5182 9.4097 13.3602 9.08813 13.1776C8.44556 12.8126 7.61816 12.3537 6.79397 11.9038C5.96968 11.4538 5.151 11.0142 4.52576 10.6876C4.21263 10.524 3.95102 10.3904 3.76254 10.2983C3.74585 10.2902 3.72989 10.2824 3.71465 10.2751C3.68641 10.4751 3.67437 10.7889 3.67508 11.2838C3.67823 11.2512 3.68184 11.2204 3.68596 11.192C3.6916 11.1532 3.70143 11.0949 3.72081 11.0364C3.72941 11.0105 3.75028 10.9517 3.7936 10.8896C3.82684 10.842 3.96033 10.6695 4.21254 10.6695C4.27205 10.6695 4.31804 10.6804 4.33203 10.6837C4.35243 10.6886 4.36896 10.6938 4.37894 10.6972C4.39911 10.7039 4.41655 10.7109 4.42763 10.7155C4.45097 10.7253 4.47608 10.7368 4.49943 10.748C4.54758 10.7708 4.61089 10.8025 4.68528 10.8407C4.83517 10.9175 5.04368 11.0274 5.29491 11.1618C5.79786 11.431 6.47931 11.8024 7.22132 12.2133C7.22161 12.2134 7.22189 12.2136 7.22217 12.2138L9.89055 13.6826L10.1474 13.8239L10.1494 14.1171L10.1617 15.8559L10.1617 15.8559V15.8594C10.1617 16.8115 10.1985 17.9641 10.2447 18.4154C10.2883 18.82 10.3172 18.9768 10.3767 19.1152C10.4386 19.2594 10.5464 19.4131 10.8341 19.7696C11.0434 20.0282 11.1903 20.2 11.3057 20.3114C11.3422 20.3467 11.3704 20.3706 11.391 20.3867C11.4608 20.3337 11.5594 20.2372 11.7171 20.0651C12.2491 19.4819 12.3966 19.3151 12.4799 18.9997ZM15.4868 16.389C15.487 16.389 15.4877 16.3875 15.4885 16.3848C15.4871 16.3877 15.4867 16.3891 15.4868 16.389ZM3.92225 13.9729L3.71479 13.8341L3.71598 13.9011L5.08991 14.8311C5.09041 14.8315 5.09091 14.8318 5.09142 14.8322C5.96551 15.4149 6.79399 15.9912 6.9372 16.1058L6.94581 16.1126L6.95411 16.1199C7.11531 16.261 7.18934 16.4379 7.2305 16.6456C7.24075 16.6974 7.24973 16.755 7.25766 16.8195C7.25585 16.7464 7.254 16.6777 7.25211 16.6136C7.24736 16.4524 7.24243 16.3231 7.23743 16.2281C7.14672 16.1584 7.01679 16.0636 6.85511 15.9493C6.53144 15.7205 6.09507 15.4235 5.62628 15.113L5.62434 15.1117L3.92225 13.9729ZM7.30305 26.5025C7.29318 26.9466 7.28061 27.286 7.2647 27.5187C7.25671 27.6356 7.24701 27.7393 7.23388 27.8196C7.22797 27.8557 7.21752 27.9123 7.19725 27.9694C7.18818 27.9949 7.16601 28.0534 7.12067 28.1148C7.08268 28.1663 6.95009 28.3231 6.71057 28.3231C6.58715 28.3231 6.49043 28.2765 6.47131 28.2673C6.47047 28.2669 6.46979 28.2666 6.46925 28.2663C6.43265 28.2491 6.39931 28.2295 6.37364 28.2136C6.32083 28.1809 6.26181 28.1394 6.20298 28.096C6.0833 28.0076 5.93465 27.8892 5.77994 27.7604C5.47434 27.506 5.11898 27.1895 4.88705 26.9516C4.88618 26.9508 4.88431 26.9491 4.88138 26.9464C4.8653 26.9315 4.81751 26.8873 4.73216 26.809C4.63124 26.7165 4.48928 26.5867 4.31654 26.4293C3.97111 26.1144 3.50326 25.6894 2.99566 25.2307L2.99491 25.23L1.56656 23.9341C1.66556 24.0313 1.77375 24.1365 1.89017 24.2488C2.48909 24.8264 3.29667 25.5822 4.16927 26.3755L4.16927 26.3755L4.17063 26.3767C5.40822 27.5102 6.21418 28.231 6.73941 28.6677C6.97546 28.864 7.14515 28.9947 7.26605 29.0777C7.26896 28.9978 7.27176 28.9044 7.27444 28.7982C7.284 28.4187 7.29163 27.8891 7.29736 27.2581C7.29952 27.0195 7.30142 26.7668 7.30305 26.5025ZM7.42589 29.1735C7.42586 29.1735 7.42456 29.1729 7.42208 29.1721C7.42467 29.1732 7.42592 29.1736 7.42589 29.1735ZM0.971817 23.3268C0.975683 23.3311 0.979702 23.3356 0.983874 23.3403L0.981888 23.1886L0.908433 17.5815C0.90843 17.5813 0.908427 17.5811 0.908424 17.5809C0.874637 15.3881 0.851082 13.5817 0.838046 12.1036C0.833808 13.0364 0.832434 14.0138 0.833851 14.9878C0.83691 17.0901 0.852971 19.1738 0.881223 20.7561C0.895358 21.5477 0.912494 22.2108 0.932429 22.687C0.942427 22.9259 0.952933 23.1127 0.963677 23.2435C0.966345 23.276 0.968903 23.3034 0.97129 23.3262C0.971465 23.3264 0.971641 23.3266 0.971817 23.3268ZM0.924614 23.2712C0.922988 23.2688 0.922033 23.2676 0.921962 23.2676C0.92189 23.2675 0.922704 23.2687 0.924614 23.2712ZM15.5414 29.256C15.5415 29.2559 15.5407 29.2544 15.5389 29.2519C15.5405 29.2548 15.5414 29.2561 15.5414 29.256ZM15.5393 29.2837C15.5393 29.2835 15.539 29.2807 15.5382 29.276C15.5388 29.2815 15.5393 29.2839 15.5393 29.2837ZM15.3429 29.1676C15.3405 29.168 15.3393 29.1683 15.3392 29.1684C15.3392 29.1685 15.3404 29.1683 15.3429 29.1676ZM7.9698 6.92226C8.01758 7.13436 8.06942 7.29114 8.12378 7.41088L7.74309 5.01648C7.74305 5.01607 7.74302 5.01566 7.74298 5.01525C7.74474 5.0427 7.74649 5.07063 7.74824 5.09904C7.80913 5.9386 7.87755 6.51272 7.9698 6.92226ZM7.63594 4.05109C7.64842 4.10285 7.65956 4.16119 7.66969 4.22633C7.64532 3.98022 7.62174 3.75732 7.6005 3.56924C7.59398 3.51151 7.58771 3.45731 7.58174 3.40693C7.48925 3.41696 7.38362 3.42911 7.2662 3.44323C7.209 3.45011 7.14927 3.45742 7.08717 3.46515C7.20798 3.4848 7.33558 3.54068 7.44293 3.65702C7.56214 3.78624 7.61032 3.94478 7.63594 4.05109ZM3.19261 4.07827C3.36621 4.04013 3.56168 3.99969 3.77026 3.95848C3.34972 4.03448 3.05337 4.09916 2.82529 4.16384C2.93336 4.13673 3.05751 4.10795 3.19261 4.07827ZM0.997584 6.002C1.17569 5.42659 1.52215 4.90346 1.98622 4.55078C1.51865 4.88316 1.15689 5.40306 0.997584 6.002ZM6.65495 4.25496C6.65491 4.25502 6.65544 4.25662 6.65664 4.25948C6.6556 4.25632 6.655 4.25489 6.65495 4.25496Z" stroke="black"/>
</svg>
