<svg width="25" height="25" viewBox="0 0 25 25" fill="none" xmlns="http://www.w3.org/2000/svg">
<g opacity="0.2">
<path fill-rule="evenodd" clip-rule="evenodd" d="M12.5015 1.75C8.67538 1.75 5.02505 4.01303 3.49714 7.58468C2.07518 10.9086 2.84496 13.7373 4.44771 16.1595C5.76177 18.1454 7.67835 19.9178 9.40742 21.5168L9.40824 21.5175C9.73768 21.8222 10.0603 22.1206 10.3707 22.4129L10.3723 22.4145C10.9473 22.9528 11.7112 23.25 12.5015 23.25C13.2919 23.25 14.0558 22.9528 14.6308 22.4144C14.9243 22.1396 15.2286 21.8592 15.539 21.5732C17.2869 19.9627 19.2304 18.172 20.5582 16.1609C22.1591 13.7362 22.9261 10.9045 21.5059 7.58468C19.978 4.01303 16.3277 1.75 12.5015 1.75ZM12.5 7.5C10.2909 7.5 8.5 9.29086 8.5 11.5C8.5 13.7091 10.2909 15.5 12.5 15.5C14.7091 15.5 16.5 13.7091 16.5 11.5C16.5 9.29086 14.7091 7.5 12.5 7.5Z" fill="#3F6AC9"/>
</g>
</svg>
