<svg width="40" height="40" viewBox="0 0 40 40" fill="none" xmlns="http://www.w3.org/2000/svg">
<path d="M0 6C0 2.68629 2.68629 0 6 0H34C37.3137 0 40 2.68629 40 6V34C40 37.3137 37.3137 40 34 40H6C2.68629 40 0 37.3137 0 34V6Z" fill="#F1EDE7"/>
<path d="M11.4568 15.2813L11.4568 15.2813C12.9017 11.9039 16.3642 9.75 20.0015 9.75C23.6389 9.75 27.1014 11.9039 28.5462 15.2813L29.0059 15.0847L28.5462 15.2813C29.8836 18.4075 29.1754 21.0613 27.6409 23.3854L28.0582 23.6609L27.6409 23.3854C26.3528 25.3364 24.4578 27.086 22.7002 28.7055C22.3901 28.9912 22.0843 29.273 21.7891 29.5494L21.7891 29.5494C21.3083 29.9996 20.6672 30.25 20.0015 30.25C19.338 30.25 18.6988 30.0011 18.2186 29.5538L18.2135 29.5489C17.9015 29.2551 17.5776 28.9555 17.2489 28.6515L17.2477 28.6504L17.2404 28.6437L17.2396 28.643C15.503 27.037 13.6377 25.3074 12.3647 23.3836C10.8285 21.062 10.1178 18.4114 11.4568 15.2813ZM20 14.5C17.5147 14.5 15.5 16.5147 15.5 19C15.5 21.4852 17.5147 23.5 20 23.5C22.4852 23.5 24.5 21.4852 24.5 19C24.5 16.5147 22.4852 14.5 20 14.5Z" fill="#3F6AC9" stroke="#3F6AC9"/>
</svg>
