<svg width="40" height="40" viewBox="0 0 40 40" fill="none" xmlns="http://www.w3.org/2000/svg">
<path d="M0 6C0 2.68629 2.68629 0 6 0H34C37.3137 0 40 2.68629 40 6V34C40 37.3137 37.3137 40 34 40H6C2.68629 40 0 37.3137 0 34V6Z" fill="#F1EDE7"/>
<path d="M15.0165 20.8436C13.6009 20.5809 12.1135 20.8709 10.8485 21.7183L10.8485 21.7183C10.7868 21.7596 10.709 21.8088 10.6273 21.8605L15.0165 20.8436ZM15.0165 20.8436C14.8148 20.9558 14.6246 21.0666 14.4705 21.1618L14.461 21.1673C13.9692 21.4548 12.992 22.0261 12.2725 22.7575L12.2725 22.7575C11.804 23.2337 11.1435 24.0682 11.0201 25.241C10.9857 25.5671 10.9964 25.8821 11.0449 26.1836C10.2667 26.0215 9.71219 25.5782 9.21324 25.0434L9.21321 25.0434C8.86189 24.6669 8.71846 24.2793 8.75583 23.8948L8.75583 23.8947C8.79215 23.5209 8.99529 23.1952 9.24132 22.9243L9.24134 22.9243C9.63145 22.4947 10.2248 22.1154 10.6271 21.8607L15.0165 20.8436ZM11.1055 26.5485C11.1054 26.5485 11.1054 26.5479 11.1054 26.5468C11.1055 26.548 11.1055 26.5485 11.1055 26.5485ZM15.7099 21.0169C15.7115 21.0176 15.7122 21.018 15.7122 21.018C15.7122 21.018 15.7114 21.0177 15.7099 21.0169ZM15.6426 20.4903C15.6436 20.4894 15.6441 20.4889 15.6441 20.4889C15.6442 20.4889 15.6437 20.4894 15.6426 20.4903Z" fill="#3F6AC9" stroke="#3F6AC9"/>
<path d="M14.2558 13.7617C14.0893 14.3125 14 14.8962 14 15.5C14 16.8087 14.4196 18.0208 15.1314 19.0073C14.7868 19.1631 14.4041 19.25 14 19.25C12.4812 19.25 11.25 18.0188 11.25 16.5C11.25 14.9812 12.4812 13.75 14 13.75C14.0864 13.75 14.1717 13.754 14.2558 13.7617ZM14.4267 13.6901L14.7675 13.8007L14.4267 13.6901L14.4267 13.6901L14.4267 13.6901Z" fill="#3F6AC9" stroke="#3F6AC9"/>
<path d="M27.728 22.7575L27.728 22.7576C28.1964 23.2337 28.8569 24.0682 28.9804 25.2409L28.9804 25.241C29.0147 25.5672 29.0041 25.8822 28.9555 26.1836C29.7338 26.0215 30.2883 25.5783 30.7872 25.0434L30.7872 25.0434C31.1386 24.6669 31.282 24.2793 31.2446 23.8948C31.2083 23.5209 31.0051 23.1952 30.7591 22.9244L30.7591 22.9243C30.369 22.4947 29.7756 22.1153 29.3734 21.8606C29.3733 21.8606 29.3733 21.8606 29.3732 21.8605L27.728 22.7575ZM27.728 22.7575C27.0082 22.0258 26.0305 21.4544 25.5388 21.1669C25.5358 21.1652 25.5329 21.1635 25.53 21.1618C25.3758 21.0666 25.1857 20.9558 24.984 20.8436M27.728 22.7575L24.984 20.8436M24.984 20.8436C26.3996 20.5809 27.887 20.8709 29.152 21.7183L24.984 20.8436ZM28.895 26.5485C28.895 26.5485 28.895 26.548 28.895 26.5468C28.895 26.5479 28.895 26.5485 28.895 26.5485ZM24.3563 20.4889C24.3563 20.4889 24.3569 20.4894 24.3578 20.4903C24.3568 20.4894 24.3563 20.4889 24.3563 20.4889ZM24.2883 21.018C24.2882 21.018 24.289 21.0176 24.2906 21.0168C24.2891 21.0176 24.2883 21.018 24.2883 21.018Z" fill="#3F6AC9" stroke="#3F6AC9"/>
<path d="M26.0007 19.25C25.5966 19.25 25.2139 19.1631 24.8694 19.0073C25.5812 18.0208 26.0007 16.8087 26.0007 15.5C26.0007 14.8962 25.9114 14.3125 25.745 13.7617C25.8291 13.754 25.9144 13.75 26.0007 13.75C27.5195 13.75 28.7507 14.9812 28.7507 16.5C28.7507 18.0188 27.5195 19.25 26.0007 19.25Z" fill="#3F6AC9" stroke="#3F6AC9"/>
<path d="M15.6915 22.4733C18.3292 20.8422 21.675 20.8422 24.3127 22.4733C24.3905 22.5214 24.489 22.579 24.6022 22.6452C25.1145 22.945 25.9276 23.4208 26.4826 23.9849C26.8311 24.3391 27.1787 24.8221 27.242 25.4242C27.3099 26.0683 27.0365 26.6646 26.5149 27.1806C25.6533 28.033 24.5859 28.75 23.1865 28.75H16.8177C15.4183 28.75 14.3509 28.033 13.4893 27.1806C12.9678 26.6646 12.6944 26.0683 12.7622 25.4242C12.8255 24.8221 13.1731 24.3391 13.5217 23.9849C14.0766 23.4208 14.8897 22.945 15.402 22.6452C15.5152 22.579 15.6137 22.5214 15.6915 22.4733Z" fill="#3F6AC9"/>
<path d="M15.752 15.5C15.752 13.1528 17.6547 11.25 20.002 11.25C22.3492 11.25 24.252 13.1528 24.252 15.5C24.252 17.8472 22.3492 19.75 20.002 19.75C17.6547 19.75 15.752 17.8472 15.752 15.5Z" fill="#3F6AC9"/>
</svg>
