<svg width="40" height="40" viewBox="0 0 40 40" fill="none" xmlns="http://www.w3.org/2000/svg">
<path d="M0 6C0 2.68629 2.68629 0 6 0H34C37.3137 0 40 2.68629 40 6V34C40 37.3137 37.3137 40 34 40H6C2.68629 40 0 37.3137 0 34V6Z" fill="#F1EDE7"/>
<path d="M18.0418 30.0411L18.0419 30.0411C18.2145 30.1654 18.4067 30.2223 18.6275 30.25H21.3725C21.5933 30.2223 21.7855 30.1654 21.9582 30.0411C22.1377 29.9119 22.2543 29.7399 22.3525 29.5291C22.3914 29.4456 22.5407 29.0241 22.6942 28.5775C22.7675 28.3642 22.8376 28.1578 22.8894 28.0047L22.9513 27.821L22.9684 27.7701L22.9729 27.7568L22.974 27.7534L22.9743 27.7526L22.9744 27.7524L22.9744 27.7523L23.4485 27.9112M18.0418 30.0411L28.1524 27.5385C27.8181 27.674 27.4948 27.6681 27.1993 27.6213L27.2775 27.1275C27.2776 27.1275 27.2776 27.1275 27.2775 27.1275C27.2773 27.1274 27.2764 27.1273 27.2747 27.127L27.2664 27.1254C27.263 27.1247 27.259 27.1239 27.2545 27.123C27.2497 27.122 27.2442 27.1208 27.238 27.1194C27.2143 27.1143 27.1842 27.1073 27.1478 27.0985C27.0751 27.081 26.9831 27.0577 26.8775 27.0303C26.6668 26.9755 26.409 26.906 26.1579 26.8373C25.9072 26.7688 25.6645 26.7015 25.4845 26.6513L25.2684 26.5909L25.2085 26.5741L25.1929 26.5697L25.1889 26.5686L25.1879 26.5683L25.1877 26.5682L25.1876 26.5682L25.0521 27.0495L25.1876 26.5682L25.1728 26.5641L25.1579 26.5608C24.7286 26.4679 24.1671 26.5703 23.6514 26.9085L23.6513 26.9086C23.4575 27.0357 23.2911 27.2537 23.2004 27.38C23.1474 27.4537 23.1027 27.5215 23.0712 27.5709C23.0554 27.5957 23.0426 27.6163 23.0336 27.6311L23.0228 27.6488L23.0196 27.6541L23.0186 27.6558L23.0183 27.6565L23.0181 27.6567L23.018 27.6568C23.018 27.6569 23.018 27.6569 23.4485 27.9112M18.0418 30.0411C17.8623 29.9119 17.7457 29.74 17.6475 29.5291L17.1998 29.7376M18.0418 30.0411L17.1998 29.7376M23.4485 27.9112L22.9744 27.7523L22.9912 27.7023L23.018 27.6569L23.4485 27.9112ZM11.4559 19.1019L11.8405 18.7825L11.8343 18.7749L11.8277 18.7676L11.4559 19.1019ZM11.4559 19.1019C11.8405 18.7825 11.8407 18.7827 11.8408 18.7828L11.8411 18.7832L11.8417 18.7839L11.843 18.7855L11.8459 18.789L11.8527 18.7976C11.8577 18.8041 11.8637 18.8118 11.8704 18.821C11.8838 18.8393 11.9004 18.8632 11.9189 18.8925C11.956 18.951 12.0013 19.0318 12.0453 19.1343C12.1337 19.3401 12.2159 19.6315 12.2159 19.9998C12.2159 20.3333 12.1299 20.6229 12.05 20.8223C12.0093 20.9236 11.9684 21.0063 11.9365 21.0653C11.9206 21.0949 11.9067 21.1189 11.8961 21.1367L11.8826 21.1587L11.8779 21.1662L11.8761 21.169L11.8753 21.1701L11.875 21.1707L11.8748 21.1709C11.8748 21.171 11.8747 21.1711 11.4559 20.898M11.4559 19.1019L11.8277 18.7676L11.8276 18.7676L11.8275 18.7674L11.8267 18.7665L11.8236 18.7631L11.8114 18.7495L11.7651 18.6979L11.5983 18.5118C11.4596 18.3568 11.2732 18.1481 11.0824 17.9332C10.8913 17.7179 10.6966 17.4974 10.5409 17.3182C10.4629 17.2285 10.3958 17.1505 10.3443 17.0892C10.3185 17.0586 10.2976 17.0333 10.2816 17.0136C10.2737 17.0037 10.2676 16.996 10.2631 16.9902C10.259 16.985 10.2573 16.9827 10.2573 16.9827C10.1211 16.7917 10.0288 16.6045 10.0056 16.3842L10.0056 16.3842C9.98235 16.1638 10.0336 15.9616 10.127 15.7466M11.4559 20.898L11.107 13.0649C11.107 13.0649 9.76957 15.3146 9.66843 15.5473M11.4559 20.898L11.8747 21.1711L11.8533 21.2039L11.8271 21.233C11.7203 21.3513 11.3568 21.7557 11.0019 22.1559C10.8244 22.3561 10.65 22.5541 10.5114 22.7144C10.4419 22.7946 10.3825 22.8641 10.3367 22.919C10.3137 22.9465 10.295 22.9692 10.2807 22.9872L10.2637 23.0087L10.2589 23.015C10.2578 23.0165 10.2574 23.0171 10.2575 23.017C10.1211 23.2081 10.0288 23.3953 10.0056 23.6157C9.98326 23.8274 10.0297 24.0224 10.1162 24.2281L11.5241 26.6576C11.6684 26.8455 11.8251 26.9899 12.0354 27.0751L12.0354 27.0751C12.2543 27.1638 12.4764 27.1664 12.7225 27.1275C12.7223 27.1275 12.7232 27.1273 12.7253 27.127L12.7336 27.1254C12.7408 27.124 12.7502 27.122 12.762 27.1194C12.7857 27.1143 12.8158 27.1073 12.8522 27.0985C12.9249 27.081 13.017 27.0577 13.1225 27.0303C13.3332 26.9755 13.591 26.906 13.8421 26.8373C14.0928 26.7688 14.3355 26.7015 14.5155 26.6513L14.7316 26.5909L14.7914 26.5741L14.8071 26.5697L14.8111 26.5686L14.8121 26.5683L14.8123 26.5682L14.8124 26.5682L14.9479 27.0495M11.4559 20.898L16.5515 27.9112M10.127 15.7466C10.127 15.7466 10.127 15.7466 10.127 15.7466L9.66843 15.5473M10.127 15.7466C10.1265 15.7477 10.1266 15.7476 10.1273 15.7462C10.1289 15.7429 10.1338 15.7328 10.144 15.7134C10.1571 15.6884 10.1748 15.6557 10.197 15.6154C10.2414 15.5351 10.3004 15.4307 10.3697 15.3098C10.508 15.0684 10.6837 14.7671 10.8569 14.4718C11.03 14.1768 11.2 13.8889 11.3267 13.6747L11.4793 13.4171L11.5218 13.3455L11.5225 13.3444M10.127 15.7466L9.66843 15.5473M9.66843 15.5473L11.5225 13.3444M11.5225 13.3444C11.6672 13.1555 11.8243 13.0103 12.0354 12.9248C12.2542 12.836 12.4763 12.8335 12.7225 12.8725L12.7226 12.8725C12.8207 12.888 13.2389 12.9968 13.7187 13.1276C14.1789 13.253 14.6475 13.385 14.8118 13.4315L14.8269 13.4357L14.8422 13.439L14.9479 12.9503C14.8422 13.439 14.8424 13.4391 14.8427 13.4391L14.8431 13.4392L14.8441 13.4395L14.8462 13.4399L14.8511 13.4409L14.8632 13.4432C14.8724 13.4449 14.8837 13.4469 14.897 13.4489C14.9237 13.4529 14.9587 13.4573 15.0009 13.4606C15.0852 13.4672 15.1997 13.4697 15.3361 13.4563C15.6102 13.4294 15.9721 13.3383 16.3486 13.0914C16.6496 12.894 16.8828 12.6086 17.0161 12.2736L17.0213 12.2607L17.0257 12.2476L16.5516 12.0887L17.0257 12.2476L17.0257 12.2475L17.0258 12.2473L17.026 12.2465L17.0272 12.2431L17.0316 12.2298L17.0487 12.1789L17.1107 11.9952C17.1624 11.8421 17.2325 11.6358 17.3058 11.4225C17.4594 10.9759 17.6086 10.5544 17.6475 10.471L17.6475 10.4709C17.7457 10.26 17.8623 10.0881 18.0418 9.95889L18.0418 9.95888C18.2145 9.83458 18.4067 9.77773 18.6275 9.75H21.3725C21.5933 9.77772 21.7854 9.83456 21.9582 9.95887L11.5225 13.3444ZM23.4484 12.0887L22.9743 12.2475L22.9743 12.2475L22.9742 12.2473L22.9739 12.2465L22.9728 12.2431L22.9683 12.2298L22.9512 12.1789L22.8893 11.9952C22.8375 11.8421 22.7675 11.6358 22.6942 11.4225C22.5407 10.976 22.3915 10.5546 22.3526 10.4709C22.2543 10.2601 22.1377 10.0881 21.9582 9.95891L23.4484 12.0887ZM23.4484 12.0887L22.9743 12.2476L22.9787 12.2607L22.9838 12.2736C23.1172 12.6085 23.3504 12.894 23.6514 13.0914C24.0279 13.3383 24.3898 13.4294 24.6639 13.4563C24.8003 13.4697 24.9148 13.4672 24.9991 13.4606C25.0413 13.4573 25.0763 13.4529 25.103 13.4489C25.1163 13.4469 25.1277 13.4449 25.1368 13.4432L25.149 13.4409L25.1538 13.4399L25.1559 13.4395L25.1569 13.4392L25.1574 13.4391C25.1576 13.4391 25.1578 13.439 25.0521 12.9503L25.1578 13.439L25.1732 13.4357L25.1883 13.4315C25.3525 13.385 25.8211 13.253 26.2812 13.1276C26.7611 12.9968 27.1793 12.888 27.2774 12.8725L27.2775 12.8725C27.5236 12.8335 27.7457 12.836 27.9646 12.9248L28.1524 12.4614L27.9646 12.9248C28.1757 13.0103 28.3328 13.1555 28.4774 13.3443L28.4781 13.3455L28.5207 13.4171L28.6732 13.6747C28.8 13.8889 28.97 14.1768 29.1431 14.4718C29.3163 14.7671 29.492 15.0684 29.6303 15.3098C29.6996 15.4307 29.7586 15.5351 29.803 15.6155C29.8252 15.6558 29.8429 15.6885 29.856 15.7134C29.8662 15.7329 29.8712 15.743 29.8728 15.7462C29.8735 15.7477 29.8735 15.7478 29.8731 15.7467M23.4484 12.0887L30.3316 15.5473M29.8731 15.7467L30.3316 15.5473M29.8731 15.7467C29.9664 15.9615 30.0176 16.1638 29.9945 16.3842M29.8731 15.7467C29.873 15.7466 29.873 15.7466 29.873 15.7466L30.3316 15.5473M30.3316 15.5473C30.4442 15.8065 30.5272 16.0991 30.4917 16.4366M30.4917 16.4366L29.9945 16.3842M30.4917 16.4366L29.9944 16.3843C29.9944 16.3842 29.9944 16.3842 29.9945 16.3842M30.4917 16.4366L29.9945 16.3842M29.9945 16.3842C29.9712 16.6045 29.8789 16.7918 29.7426 16.9828C29.7433 16.9819 29.7418 16.984 29.737 16.9902C29.7325 16.996 29.7264 17.0037 29.7184 17.0136C29.7025 17.0333 29.6815 17.0586 29.6557 17.0892C29.6042 17.1504 29.5371 17.2285 29.4591 17.3182C29.3034 17.4973 29.1087 17.7179 28.9176 17.9331C28.7268 18.1481 28.5404 18.3568 28.4017 18.5118L28.2349 18.6979L28.1885 18.7495L28.1764 18.7631L28.1733 18.7665L28.1725 18.7674L28.1723 18.7676L28.1723 18.7676L28.5441 19.1019M29.9945 16.3842L28.4759 26.6576L29.8838 24.2281C29.9703 24.0225 30.0167 23.8275 29.9945 23.6158C29.9712 23.3953 29.8788 23.208 29.7425 23.017C29.7424 23.0167 29.7419 23.0161 29.7411 23.015L29.7363 23.0087L29.7194 22.9872C29.705 22.9692 29.6863 22.9465 29.6634 22.919C29.6175 22.8641 29.5581 22.7946 29.4887 22.7144C29.35 22.5541 29.1756 22.3561 28.9981 22.1559C28.6432 21.7557 28.2797 21.3514 28.1729 21.233L28.1467 21.2039L28.1253 21.1711L28.5441 20.898C28.1253 21.1711 28.1252 21.171 28.1251 21.1709L28.125 21.1706L28.1246 21.1701L28.1239 21.1689L28.1221 21.1661L28.1174 21.1587L28.1039 21.1367C28.0933 21.1189 28.0794 21.0949 28.0634 21.0653C28.0316 21.0063 27.9906 20.9236 27.95 20.8223C27.8701 20.6229 27.7841 20.3333 27.7841 19.9998C27.7841 19.6315 27.8663 19.3401 27.9547 19.1343C27.9986 19.0319 28.044 18.9511 28.081 18.8925C28.0996 18.8632 28.1161 18.8394 28.1296 18.821C28.1363 18.8119 28.1422 18.8041 28.1472 18.7977L28.154 18.7891L28.1569 18.7855L28.1582 18.784L28.1588 18.7832L28.1591 18.7829C28.1592 18.7827 28.1594 18.7825 28.5441 19.1019M28.5441 19.1019L28.1723 18.7676L28.1657 18.775L28.1594 18.7825L28.5441 19.1019ZM16.5515 27.9112C16.5515 27.9112 17.0878 29.5117 17.1942 29.7402C17.3127 29.9946 17.4755 30.2495 17.7497 30.4469C18.0241 30.6444 18.3181 30.7181 18.5977 30.75L16.5515 27.9112ZM16.5515 27.9112C16.982 27.6569 16.982 27.6568 16.982 27.6568L16.9819 27.6567L16.9817 27.6564L16.9814 27.6558L16.9804 27.6541L16.9772 27.6488L16.9664 27.631C16.9574 27.6162 16.9446 27.5957 16.9288 27.5708C16.8973 27.5215 16.8526 27.4536 16.7996 27.38C16.7088 27.2537 16.5425 27.0357 16.3488 26.9086L16.3486 26.9085C15.8329 26.5703 15.2714 26.4679 14.8421 26.5608L14.8271 26.5641L14.8124 26.5682L14.9479 27.0495M16.5515 27.9112C16.5515 27.9112 16.2896 27.4678 16.0744 27.3266M16.5515 27.9112L17.0256 27.7523L17.0089 27.7023L16.982 27.6569L16.5515 27.9112ZM16.5515 27.9112L16.0744 27.3266M16.5515 27.9112L17.0256 27.7524M16.5515 27.9112L17.0256 27.7524M14.9479 27.0495C15.2256 26.9894 15.6519 27.0495 16.0744 27.3266M14.9479 27.0495C14.9479 27.0495 13.0664 27.5792 12.8007 27.6213M12.8007 27.6213C12.5052 27.6681 12.1819 27.674 11.8476 27.5385L12.8007 27.6213ZM12.8007 27.6213L16.0744 27.3266M17.1998 29.7376L17.6475 29.5291M17.1998 29.7376L17.6475 29.5291M17.6475 29.5291C17.6086 29.4456 17.4593 29.0241 17.3058 28.5775M17.6475 29.5291L17.3058 28.5775M17.3058 28.5775C17.2325 28.3642 17.1624 28.1578 17.1106 28.0047M17.3058 28.5775L17.1106 28.0047M17.1106 28.0047L17.0487 27.821M17.1106 28.0047L17.0487 27.821M17.0487 27.821L17.0316 27.7701M17.0487 27.821L17.0316 27.7701M17.0316 27.7701L17.0271 27.7568M17.0316 27.7701L17.0271 27.7568M17.0271 27.7568L17.026 27.7534M17.0271 27.7568L17.026 27.7534M17.026 27.7534L17.0257 27.7526M17.026 27.7534L17.0257 27.7526M17.0257 27.7526L17.0256 27.7524M17.0257 27.7526L17.0256 27.7524M17.0256 27.7524L17.0256 27.7524M17.0256 27.7524L17.0256 27.7524M20.0195 24C22.2286 24 24.0195 22.2091 24.0195 20C24.0195 17.7909 22.2286 16 20.0195 16C17.8103 16 16.0195 17.7909 16.0195 20C16.0195 22.2091 17.8103 24 20.0195 24Z" fill="#3F6AC9" stroke="#3F6AC9"/>
</svg>
