<svg width="25" height="25" viewBox="0 0 25 25" fill="none" xmlns="http://www.w3.org/2000/svg">
<path fill-rule="evenodd" clip-rule="evenodd" d="M12.5 5C11.9477 5 11.5 4.55228 11.5 4V2C11.5 1.44771 11.9477 1 12.5 1C13.0523 1 13.5 1.44771 13.5 2V4C13.5 4.55228 13.0523 5 12.5 5ZM2 11.5C1.44771 11.5 1 11.9477 1 12.5C1 13.0523 1.44771 13.5 2 13.5H4C4.55228 13.5 5 13.0523 5 12.5C5 11.9477 4.55228 11.5 4 11.5H2ZM21 11.5C20.4477 11.5 20 11.9477 20 12.5C20 13.0523 20.4477 13.5 21 13.5H23C23.5523 13.5 24 13.0523 24 12.5C24 11.9477 23.5523 11.5 23 11.5H21ZM11.5 23C11.5 23.5523 11.9477 24 12.5 24C13.0523 24 13.5 23.5523 13.5 23V21C13.5 20.4477 13.0523 20 12.5 20C11.9477 20 11.5 20.4477 11.5 21V23Z" fill="#3F6AC9"/>
<path d="M8.75 12.5C8.75 10.4289 10.4289 8.75 12.5 8.75C14.5711 8.75 16.25 10.4289 16.25 12.5C16.25 14.5711 14.5711 16.25 12.5 16.25C10.4289 16.25 8.75 14.5711 8.75 12.5Z" fill="#3F6AC9"/>
<path fill-rule="evenodd" clip-rule="evenodd" d="M12.5137 5C8.37154 5 5.01367 8.35786 5.01367 12.5C5.01367 16.6421 8.37154 20 12.5137 20C16.6558 20 20.0137 16.6421 20.0137 12.5C20.0137 8.35786 16.6558 5 12.5137 5ZM3.01367 12.5C3.01367 7.25329 7.26697 3 12.5137 3C17.7604 3 22.0137 7.25329 22.0137 12.5C22.0137 17.7467 17.7604 22 12.5137 22C7.26697 22 3.01367 17.7467 3.01367 12.5Z" fill="#3F6AC9"/>
</svg>
