<svg width="123" height="94" viewBox="0 0 123 94" fill="none" xmlns="http://www.w3.org/2000/svg">
<path d="M109.394 72.4067C108.742 72.9918 107.764 72.9918 107.112 72.4067L101.894 67.7259V82.3536C101.894 83.0849 101.242 83.8163 100.264 83.8163C99.2855 83.8163 98.6333 83.0849 98.6333 82.3536V67.7259L93.4158 72.4067C93.0897 72.6993 92.6005 72.8456 92.2744 72.8456C91.7853 72.8456 91.4592 72.6993 91.1331 72.4067C90.4809 71.8216 90.4809 70.944 91.1331 70.3589L99.1224 63.1913C99.2855 63.045 99.4485 62.8988 99.6116 62.8988C99.9377 62.7525 100.427 62.7525 100.916 62.8988C101.079 62.8988 101.242 63.045 101.405 63.1913L109.394 70.3589C110.047 70.944 110.047 71.8216 109.394 72.4067Z" fill="#3F6AC9"/>
<path d="M29.1753 29.2554C23.4686 29.2554 18.7402 25.1596 18.7402 19.8936C18.7402 14.774 23.3056 10.6782 29.1753 10.6782C34.8819 10.6782 39.4472 14.774 39.4472 19.8936C39.4472 25.1596 34.8819 29.2554 29.1753 29.2554Z" fill="#3F6AC9"/>
<path d="M101.894 53.2447V4.3883C101.894 2.04787 99.7746 0 97.0028 0H5.04425C2.27245 0 0.152832 2.04787 0.152832 4.3883V70.359C0.152832 72.6995 2.27245 74.7473 5.04425 74.7473H77.9263C78.7416 85.133 88.5244 93.4707 100.264 93.4707C112.655 93.4707 122.764 84.4016 122.764 73.2846C122.601 62.7527 113.471 53.9761 101.894 53.2447ZM3.41377 4.3883C3.41377 3.65691 4.06597 2.92553 5.04425 2.92553H97.0028C97.9811 2.92553 98.6333 3.65691 98.6333 4.3883V47.2473L74.8284 28.5239C74.1762 28.0851 73.198 28.0851 72.7088 28.5239L44.0125 52.5133L30.8057 40.8112C30.3166 40.3723 29.3383 40.2261 28.6861 40.6649L3.41377 57.1941V4.3883ZM100.264 90.5452C89.6657 90.5452 81.1873 82.7925 81.1873 73.2846C81.1873 63.7766 89.8288 56.0239 100.264 56.0239C110.862 56.0239 119.503 63.7766 119.503 73.2846C119.34 82.7925 110.862 90.5452 100.264 90.5452Z" fill="#3F6AC9"/>
</svg>
