<svg width="40" height="40" viewBox="0 0 40 40" fill="none" xmlns="http://www.w3.org/2000/svg">
<path d="M23.2341 10.5618C25.9558 12.1079 28.0944 13.3229 29.6181 14.4359C31.1521 15.5565 32.2868 16.7278 32.6931 18.272C32.9911 19.4045 32.9911 20.5957 32.6931 21.7282C32.2868 23.2723 31.1521 24.4437 29.6181 25.5643C28.0944 26.6773 25.9558 27.8923 23.2343 29.4383C20.6053 30.932 18.3883 32.1915 16.7053 32.9073C15.0088 33.629 13.4621 33.9947 11.9589 33.5687C10.8541 33.2557 9.84894 32.6615 9.03919 31.8445C7.94024 30.7357 7.4991 29.2033 7.2904 27.359C7.08322 25.5283 7.08324 23.1317 7.08325 20.0837V19.9167C7.08324 16.8685 7.08322 14.4719 7.2904 12.6412C7.4991 10.7969 7.94024 9.26445 9.03919 8.15568C9.84894 7.33872 10.8541 6.74453 11.9589 6.4315C13.4621 6.00552 15.0088 6.37125 16.7053 7.09285C18.3883 7.8087 20.6053 9.06817 23.2341 10.5618Z" fill="#3F6AC9"/>
</svg>
